<svg width="1600" height="1200" viewBox="0 0 1600 1200" fill="none" xmlns="http://www.w3.org/2000/svg">
  <rect width="1600" height="1200" rx="48" fill="url(#bg)"/>
  <rect x="84" y="84" width="1432" height="1032" rx="36" fill="rgba(255,255,255,0.08)"/>
  <rect x="180" y="820" width="1240" height="120" rx="32" fill="#0F172A" fill-opacity="0.16"/>
  <circle cx="560" cy="450" r="150" fill="#E2E8F0" fill-opacity="0.88"/>
  <circle cx="980" cy="430" r="130" fill="#BAE6FD" fill-opacity="0.92"/>
  <rect x="460" y="590" width="180" height="240" rx="64" fill="#F8FAFC" fill-opacity="0.92"/>
  <rect x="900" y="560" width="160" height="270" rx="64" fill="#F8FAFC" fill-opacity="0.88"/>
  <rect x="300" y="360" width="190" height="40" rx="20" fill="#0F172A" fill-opacity="0.24"/>
  <rect x="1110" y="340" width="190" height="40" rx="20" fill="#0F172A" fill-opacity="0.24"/>
  <path d="M310 870C430 720 580 660 760 660C950 660 1090 720 1220 870" stroke="#38BDF8" stroke-width="22" stroke-linecap="round"/>
  <path d="M515 330C555 280 615 250 690 250" stroke="#FFFFFF" stroke-opacity="0.7" stroke-width="18" stroke-linecap="round"/>
  <path d="M925 320C965 275 1020 250 1085 250" stroke="#FFFFFF" stroke-opacity="0.7" stroke-width="18" stroke-linecap="round"/>
  <defs>
    <linearGradient id="bg" x1="140" y1="80" x2="1380" y2="1120" gradientUnits="userSpaceOnUse">
      <stop stop-color="#0F172A"/>
      <stop offset="0.45" stop-color="#1D4ED8"/>
      <stop offset="1" stop-color="#0891B2"/>
    </linearGradient>
  </defs>
</svg>
