<svg width="1600" height="1200" viewBox="0 0 1600 1200" fill="none" xmlns="http://www.w3.org/2000/svg">
  <rect width="1600" height="1200" rx="48" fill="url(#bg)"/>
  <rect x="130" y="120" width="1340" height="960" rx="40" fill="#FFFFFF" fill-opacity="0.12"/>
  <rect x="270" y="210" width="1060" height="780" rx="36" fill="#F8FAFC" fill-opacity="0.92"/>
  <rect x="360" y="300" width="420" height="52" rx="18" fill="#0F172A" fill-opacity="0.18"/>
  <rect x="360" y="392" width="820" height="34" rx="17" fill="#CBD5E1"/>
  <rect x="360" y="460" width="760" height="34" rx="17" fill="#CBD5E1"/>
  <rect x="360" y="528" width="700" height="34" rx="17" fill="#CBD5E1"/>
  <rect x="360" y="662" width="90" height="90" rx="24" fill="#0EA5E9"/>
  <path d="M390 707L415 732L470 677" stroke="white" stroke-width="20" stroke-linecap="round" stroke-linejoin="round"/>
  <rect x="500" y="684" width="520" height="46" rx="20" fill="#0F172A" fill-opacity="0.14"/>
  <rect x="360" y="804" width="90" height="90" rx="24" fill="#0F172A" fill-opacity="0.14"/>
  <rect x="500" y="826" width="580" height="46" rx="20" fill="#0F172A" fill-opacity="0.14"/>
  <circle cx="1170" cy="800" r="90" fill="#BAE6FD"/>
  <circle cx="1170" cy="800" r="48" fill="#0F172A" fill-opacity="0.22"/>
  <defs>
    <linearGradient id="bg" x1="180" y1="120" x2="1380" y2="1080" gradientUnits="userSpaceOnUse">
      <stop stop-color="#E0F2FE"/>
      <stop offset="0.55" stop-color="#BFDBFE"/>
      <stop offset="1" stop-color="#DBEAFE"/>
    </linearGradient>
  </defs>
</svg>
